<?xml version="1.0" encoding="UTF-8"?>
<svg xmlns="http://www.w3.org/2000/svg" width="64" height="64" viewBox="0 0 64 64">
  <defs>
    <linearGradient id="bg" x1="0" y1="0" x2="0" y2="1">
      <stop offset="0%" stop-color="#1b3a52"/>
      <stop offset="100%" stop-color="#2f5f7f"/>
    </linearGradient>
  </defs>
  <rect x="2" y="2" width="60" height="60" rx="12" ry="12" fill="url(#bg)" stroke="#0f2536" stroke-width="2"/>
  <path d="M18 46V20M18 46H42M18 20l-4 4M18 20l4 4M42 46l-4-4M42 46l-4 4" stroke="#dfeaf3" stroke-width="3.5" stroke-linecap="round" stroke-linejoin="round"/>
  <circle cx="44" cy="24" r="8" fill="none" stroke="#ffcf40" stroke-width="3"/>
  <path d="M44 12v4M44 32v4M32 24h4M52 24h4M36 16l3 3M49 29l3 3M52 16l-3 3M39 29l-3 3" stroke="#1b8fcf" stroke-width="2.5" stroke-linecap="round"/>
</svg>
