<?xml version="1.0" encoding="UTF-8"?>
<svg xmlns="http://www.w3.org/2000/svg" width="64" height="64" viewBox="0 0 64 64">
  <defs>
    <linearGradient id="bg" x1="0" y1="0" x2="0" y2="1">
      <stop offset="0%" stop-color="#1b3a52"/>
      <stop offset="100%" stop-color="#2f5f7f"/>
    </linearGradient>
  </defs>
  <rect x="2" y="2" width="60" height="60" rx="12" ry="12" fill="url(#bg)" stroke="#0f2536" stroke-width="2"/>
  <path d="M11 38h28M15 30h20M19 22h12" stroke="#dfeaf3" stroke-width="5" stroke-linecap="round"/>
  <path d="M14 42l5-8 5 8M27 42l5-8 5 8" fill="none" stroke="#28c4ff" stroke-width="3" stroke-linecap="round" stroke-linejoin="round"/>
  <path d="M41 15h11l5 5v27H41z" fill="#263142" stroke="#dfeaf3" stroke-width="2.6" stroke-linejoin="round"/>
  <path d="M52 15v6h5" fill="none" stroke="#dfeaf3" stroke-width="2.6" stroke-linejoin="round"/>
  <path d="M45 27h8M45 33h8M45 39h5" stroke="#78f0a0" stroke-width="2.2" stroke-linecap="round"/>
  <path d="M25 50h18" stroke="#ffcf40" stroke-width="4" stroke-linecap="round"/>
  <path d="M39 45l6 5-6 5" fill="none" stroke="#ffcf40" stroke-width="4" stroke-linecap="round" stroke-linejoin="round"/>
</svg>
